{
  "asset": {
    "version": "2.0",
    "generator": "Substrate scripts/make_test_scene.py"
  },
  "extensionsUsed": [
    "KHR_lights_punctual"
  ],
  "extensions": {
    "KHR_lights_punctual": {
      "lights": [
        {
          "type": "directional",
          "name": "sun",
          "color": [
            1.0,
            0.96,
            0.9
          ],
          "intensity": 2.5
        }
      ]
    }
  },
  "scene": 0,
  "scenes": [
    {
      "name": "mirror",
      "nodes": [
        0,
        1,
        2,
        3,
        4,
        5,
        6,
        7
      ]
    }
  ],
  "nodes": [
    {
      "name": "floor",
      "mesh": 0,
      "translation": [
        0.0,
        0.0,
        0.0
      ],
      "scale": [
        1.0,
        1.0,
        1.0
      ]
    },
    {
      "name": "metal_0",
      "mesh": 1,
      "translation": [
        -3.15,
        0.7,
        0.6
      ],
      "scale": [
        1.4,
        1.4,
        1.4
      ]
    },
    {
      "name": "metal_1",
      "mesh": 2,
      "translation": [
        -1.0499999999999998,
        0.7,
        0.6
      ],
      "scale": [
        1.4,
        1.4,
        1.4
      ]
    },
    {
      "name": "metal_2",
      "mesh": 3,
      "translation": [
        1.0500000000000003,
        0.7,
        0.6
      ],
      "scale": [
        1.4,
        1.4,
        1.4
      ]
    },
    {
      "name": "metal_3",
      "mesh": 4,
      "translation": [
        3.150000000000001,
        0.7,
        0.6
      ],
      "scale": [
        1.4,
        1.4,
        1.4
      ]
    },
    {
      "name": "wall",
      "mesh": 5,
      "translation": [
        0.0,
        2.6,
        6.6
      ],
      "scale": [
        12.0,
        5.2,
        0.4
      ]
    },
    {
      "name": "pylon",
      "mesh": 6,
      "translation": [
        -1.6,
        1.6,
        3.4
      ],
      "scale": [
        0.7,
        3.2,
        0.7
      ]
    },
    {
      "name": "sun_node",
      "extensions": {
        "KHR_lights_punctual": {
          "light": 0
        }
      },
      "translation": [
        0.0,
        0.0,
        0.0
      ],
      "rotation": [
        -0.5795545094925698,
        -0.7727393459900931,
        0.0,
        0.25882517977513403
      ]
    }
  ],
  "meshes": [
    {
      "name": "floor",
      "primitives": [
        {
          "attributes": {
            "POSITION": 0,
            "NORMAL": 1,
            "TANGENT": 2,
            "TEXCOORD_0": 3
          },
          "indices": 4,
          "material": 0
        }
      ]
    },
    {
      "name": "metal_0",
      "primitives": [
        {
          "attributes": {
            "POSITION": 5,
            "NORMAL": 6,
            "TANGENT": 7,
            "TEXCOORD_0": 8
          },
          "indices": 9,
          "material": 1
        }
      ]
    },
    {
      "name": "metal_1",
      "primitives": [
        {
          "attributes": {
            "POSITION": 5,
            "NORMAL": 6,
            "TANGENT": 7,
            "TEXCOORD_0": 8
          },
          "indices": 9,
          "material": 2
        }
      ]
    },
    {
      "name": "metal_2",
      "primitives": [
        {
          "attributes": {
            "POSITION": 5,
            "NORMAL": 6,
            "TANGENT": 7,
            "TEXCOORD_0": 8
          },
          "indices": 9,
          "material": 3
        }
      ]
    },
    {
      "name": "metal_3",
      "primitives": [
        {
          "attributes": {
            "POSITION": 5,
            "NORMAL": 6,
            "TANGENT": 7,
            "TEXCOORD_0": 8
          },
          "indices": 9,
          "material": 4
        }
      ]
    },
    {
      "name": "wall",
      "primitives": [
        {
          "attributes": {
            "POSITION": 10,
            "NORMAL": 11,
            "TANGENT": 12,
            "TEXCOORD_0": 13
          },
          "indices": 14,
          "material": 5
        }
      ]
    },
    {
      "name": "pylon",
      "primitives": [
        {
          "attributes": {
            "POSITION": 10,
            "NORMAL": 11,
            "TANGENT": 12,
            "TEXCOORD_0": 13
          },
          "indices": 14,
          "material": 6
        }
      ]
    }
  ],
  "materials": [
    {
      "name": "mirror_floor",
      "pbrMetallicRoughness": {
        "baseColorFactor": [
          0.88,
          0.9,
          0.94,
          1.0
        ],
        "roughnessFactor": 0.02,
        "metallicFactor": 1.0
      }
    },
    {
      "name": "metal_r05",
      "pbrMetallicRoughness": {
        "baseColorFactor": [
          0.92,
          0.8,
          0.45,
          1.0
        ],
        "roughnessFactor": 0.05,
        "metallicFactor": 1.0
      }
    },
    {
      "name": "metal_r25",
      "pbrMetallicRoughness": {
        "baseColorFactor": [
          0.92,
          0.8,
          0.45,
          1.0
        ],
        "roughnessFactor": 0.25,
        "metallicFactor": 1.0
      }
    },
    {
      "name": "metal_r35",
      "pbrMetallicRoughness": {
        "baseColorFactor": [
          0.92,
          0.8,
          0.45,
          1.0
        ],
        "roughnessFactor": 0.35,
        "metallicFactor": 1.0
      }
    },
    {
      "name": "metal_r65",
      "pbrMetallicRoughness": {
        "baseColorFactor": [
          0.92,
          0.8,
          0.45,
          1.0
        ],
        "roughnessFactor": 0.65,
        "metallicFactor": 1.0
      }
    },
    {
      "name": "wall_rough",
      "pbrMetallicRoughness": {
        "baseColorFactor": [
          0.42,
          0.4,
          0.37,
          1.0
        ],
        "roughnessFactor": 0.9,
        "metallicFactor": 0.0
      }
    },
    {
      "name": "pylon_rough",
      "pbrMetallicRoughness": {
        "baseColorFactor": [
          0.8,
          0.78,
          0.74,
          1.0
        ],
        "roughnessFactor": 0.75,
        "metallicFactor": 0.0
      }
    }
  ],
  "accessors": [
    {
      "bufferView": 0,
      "componentType": 5126,
      "count": 4,
      "type": "VEC3",
      "min": [
        -6.0,
        0.0,
        -8.0
      ],
      "max": [
        6.0,
        0.0,
        8.0
      ]
    },
    {
      "bufferView": 1,
      "componentType": 5126,
      "count": 4,
      "type": "VEC3"
    },
    {
      "bufferView": 2,
      "componentType": 5126,
      "count": 4,
      "type": "VEC4"
    },
    {
      "bufferView": 3,
      "componentType": 5126,
      "count": 4,
      "type": "VEC2"
    },
    {
      "bufferView": 4,
      "componentType": 5125,
      "count": 6,
      "type": "SCALAR"
    },
    {
      "bufferView": 5,
      "componentType": 5126,
      "count": 693,
      "type": "VEC3",
      "min": [
        -0.5,
        -0.5,
        -0.5
      ],
      "max": [
        0.5,
        0.5,
        0.5
      ]
    },
    {
      "bufferView": 6,
      "componentType": 5126,
      "count": 693,
      "type": "VEC3"
    },
    {
      "bufferView": 7,
      "componentType": 5126,
      "count": 693,
      "type": "VEC4"
    },
    {
      "bufferView": 8,
      "componentType": 5126,
      "count": 693,
      "type": "VEC2"
    },
    {
      "bufferView": 9,
      "componentType": 5125,
      "count": 3840,
      "type": "SCALAR"
    },
    {
      "bufferView": 10,
      "componentType": 5126,
      "count": 24,
      "type": "VEC3",
      "min": [
        -0.5,
        -0.5,
        -0.5
      ],
      "max": [
        0.5,
        0.5,
        0.5
      ]
    },
    {
      "bufferView": 11,
      "componentType": 5126,
      "count": 24,
      "type": "VEC3"
    },
    {
      "bufferView": 12,
      "componentType": 5126,
      "count": 24,
      "type": "VEC4"
    },
    {
      "bufferView": 13,
      "componentType": 5126,
      "count": 24,
      "type": "VEC2"
    },
    {
      "bufferView": 14,
      "componentType": 5125,
      "count": 36,
      "type": "SCALAR"
    }
  ],
  "bufferViews": [
    {
      "buffer": 0,
      "byteOffset": 0,
      "byteLength": 48,
      "target": 34962
    },
    {
      "buffer": 0,
      "byteOffset": 48,
      "byteLength": 48,
      "target": 34962
    },
    {
      "buffer": 0,
      "byteOffset": 96,
      "byteLength": 64,
      "target": 34962
    },
    {
      "buffer": 0,
      "byteOffset": 160,
      "byteLength": 32,
      "target": 34962
    },
    {
      "buffer": 0,
      "byteOffset": 192,
      "byteLength": 24,
      "target": 34963
    },
    {
      "buffer": 0,
      "byteOffset": 216,
      "byteLength": 8316,
      "target": 34962
    },
    {
      "buffer": 0,
      "byteOffset": 8532,
      "byteLength": 8316,
      "target": 34962
    },
    {
      "buffer": 0,
      "byteOffset": 16848,
      "byteLength": 11088,
      "target": 34962
    },
    {
      "buffer": 0,
      "byteOffset": 27936,
      "byteLength": 5544,
      "target": 34962
    },
    {
      "buffer": 0,
      "byteOffset": 33480,
      "byteLength": 15360,
      "target": 34963
    },
    {
      "buffer": 0,
      "byteOffset": 48840,
      "byteLength": 288,
      "target": 34962
    },
    {
      "buffer": 0,
      "byteOffset": 49128,
      "byteLength": 288,
      "target": 34962
    },
    {
      "buffer": 0,
      "byteOffset": 49416,
      "byteLength": 384,
      "target": 34962
    },
    {
      "buffer": 0,
      "byteOffset": 49800,
      "byteLength": 192,
      "target": 34962
    },
    {
      "buffer": 0,
      "byteOffset": 49992,
      "byteLength": 144,
      "target": 34963
    }
  ],
  "buffers": [
    {
      "byteLength": 50136,
      "uri": "data:application/octet-stream;base64,"
    }
  ]
}
