{
  "asset": {
    "version": "2.0",
    "generator": "Substrate scripts/make_test_scene.py"
  },
  "extensionsUsed": [
    "KHR_lights_punctual"
  ],
  "extensions": {
    "KHR_lights_punctual": {
      "lights": [
        {
          "type": "point",
          "name": "lamp",
          "color": [
            1.0,
            0.88,
            0.7
          ],
          "intensity": 60.0,
          "range": 16.0
        }
      ]
    }
  },
  "scene": 0,
  "scenes": [
    {
      "name": "physics",
      "nodes": [
        0,
        1,
        2,
        3,
        4,
        5,
        6,
        7,
        8,
        9,
        10,
        11,
        12,
        13,
        14,
        15
      ]
    }
  ],
  "nodes": [
    {
      "name": "ground",
      "mesh": 0,
      "translation": [
        0.0,
        0.0,
        0.0
      ],
      "extras": {
        "substrate_collider": {
          "friction": 0.6
        }
      }
    },
    {
      "name": "wall",
      "mesh": 3,
      "translation": [
        0.0,
        2.0,
        10.4
      ],
      "scale": [
        12.0,
        4.0,
        0.6
      ],
      "extras": {
        "substrate_collider": {}
      }
    },
    {
      "name": "ramp",
      "mesh": 3,
      "translation": [
        -3.2,
        0.9,
        4.0
      ],
      "scale": [
        3.0,
        0.3,
        5.0
      ],
      "rotation": [
        -0.15643446504023087,
        0.0,
        0.0,
        0.9876883405951378
      ],
      "extras": {
        "substrate_collider": {
          "shape": "box",
          "halfExtent": [
            0.5,
            0.5,
            0.5
          ],
          "friction": 0.35
        }
      }
    },
    {
      "name": "crate_0",
      "mesh": 1,
      "translation": [
        -1.0,
        0.35,
        0.0
      ],
      "scale": [
        0.7,
        0.7,
        0.7
      ],
      "extras": {
        "substrate_collider": {
          "motion": "dynamic",
          "mass": 8.0,
          "friction": 0.5
        }
      }
    },
    {
      "name": "crate_1",
      "mesh": 1,
      "translation": [
        0.0,
        0.35,
        0.0
      ],
      "scale": [
        0.7,
        0.7,
        0.7
      ],
      "extras": {
        "substrate_collider": {
          "motion": "dynamic",
          "mass": 8.0,
          "friction": 0.5
        }
      }
    },
    {
      "name": "crate_2",
      "mesh": 1,
      "translation": [
        1.0,
        0.35,
        0.0
      ],
      "scale": [
        0.7,
        0.7,
        0.7
      ],
      "extras": {
        "substrate_collider": {
          "motion": "dynamic",
          "mass": 8.0,
          "friction": 0.5
        }
      }
    },
    {
      "name": "crate_3",
      "mesh": 1,
      "translation": [
        -0.5,
        1.05,
        0.0
      ],
      "scale": [
        0.7,
        0.7,
        0.7
      ],
      "extras": {
        "substrate_collider": {
          "motion": "dynamic",
          "mass": 8.0,
          "friction": 0.5
        }
      }
    },
    {
      "name": "crate_4",
      "mesh": 1,
      "translation": [
        0.5,
        1.05,
        0.0
      ],
      "scale": [
        0.7,
        0.7,
        0.7
      ],
      "extras": {
        "substrate_collider": {
          "motion": "dynamic",
          "mass": 8.0,
          "friction": 0.5
        }
      }
    },
    {
      "name": "crate_5",
      "mesh": 1,
      "translation": [
        0.0,
        1.75,
        0.0
      ],
      "scale": [
        0.7,
        0.7,
        0.7
      ],
      "extras": {
        "substrate_collider": {
          "motion": "dynamic",
          "mass": 8.0,
          "friction": 0.5
        }
      }
    },
    {
      "name": "drop_0",
      "mesh": 1,
      "translation": [
        -0.3,
        4.2,
        -0.4
      ],
      "scale": [
        0.7,
        0.7,
        0.7
      ],
      "extras": {
        "substrate_collider": {
          "shape": "box",
          "motion": "dynamic",
          "halfExtent": [
            0.5,
            0.5,
            0.5
          ],
          "mass": 6.0,
          "friction": 0.4,
          "restitution": 0.15
        }
      }
    },
    {
      "name": "drop_1",
      "mesh": 1,
      "translation": [
        0.4,
        5.6,
        0.3
      ],
      "scale": [
        0.7,
        0.7,
        0.7
      ],
      "extras": {
        "substrate_collider": {
          "shape": "box",
          "motion": "dynamic",
          "halfExtent": [
            0.5,
            0.5,
            0.5
          ],
          "mass": 6.0,
          "friction": 0.4,
          "restitution": 0.15
        }
      }
    },
    {
      "name": "drop_2",
      "mesh": 1,
      "translation": [
        0.0,
        7.0,
        -0.1
      ],
      "scale": [
        0.7,
        0.7,
        0.7
      ],
      "extras": {
        "substrate_collider": {
          "shape": "box",
          "motion": "dynamic",
          "halfExtent": [
            0.5,
            0.5,
            0.5
          ],
          "mass": 6.0,
          "friction": 0.4,
          "restitution": 0.15
        }
      }
    },
    {
      "name": "ball_0",
      "mesh": 2,
      "translation": [
        -3.4,
        2.4,
        6.2
      ],
      "scale": [
        0.8,
        0.8,
        0.8
      ],
      "extras": {
        "substrate_collider": {
          "shape": "sphere",
          "motion": "dynamic",
          "radius": 0.5,
          "mass": 4.0,
          "friction": 0.25,
          "restitution": 0.3
        }
      }
    },
    {
      "name": "ball_1",
      "mesh": 2,
      "translation": [
        -2.9,
        3.0,
        6.6
      ],
      "scale": [
        0.8,
        0.8,
        0.8
      ],
      "extras": {
        "substrate_collider": {
          "shape": "sphere",
          "motion": "dynamic",
          "radius": 0.5,
          "mass": 4.0,
          "friction": 0.25,
          "restitution": 0.3
        }
      }
    },
    {
      "name": "player",
      "mesh": 4,
      "translation": [
        3.4,
        0.9,
        3.0
      ],
      "extras": {
        "substrate_collider": {
          "motion": "character",
          "radius": 0.3,
          "halfHeight": 0.6,
          "moveSpeed": 4.0,
          "jumpSpeed": 4.5
        }
      }
    },
    {
      "name": "lamp_node",
      "extensions": {
        "KHR_lights_punctual": {
          "light": 0
        }
      },
      "translation": [
        0.5,
        3.5,
        -4.0
      ]
    }
  ],
  "meshes": [
    {
      "name": "ground",
      "primitives": [
        {
          "attributes": {
            "POSITION": 15,
            "NORMAL": 16,
            "TANGENT": 17,
            "TEXCOORD_0": 18
          },
          "indices": 19,
          "material": 0
        }
      ]
    },
    {
      "name": "crate",
      "primitives": [
        {
          "attributes": {
            "POSITION": 0,
            "NORMAL": 1,
            "TANGENT": 2,
            "TEXCOORD_0": 3
          },
          "indices": 4,
          "material": 1
        }
      ]
    },
    {
      "name": "ball",
      "primitives": [
        {
          "attributes": {
            "POSITION": 5,
            "NORMAL": 6,
            "TANGENT": 7,
            "TEXCOORD_0": 8
          },
          "indices": 9,
          "material": 2
        }
      ]
    },
    {
      "name": "stone",
      "primitives": [
        {
          "attributes": {
            "POSITION": 0,
            "NORMAL": 1,
            "TANGENT": 2,
            "TEXCOORD_0": 3
          },
          "indices": 4,
          "material": 3
        }
      ]
    },
    {
      "name": "player_body",
      "primitives": [
        {
          "attributes": {
            "POSITION": 10,
            "NORMAL": 11,
            "TANGENT": 12,
            "TEXCOORD_0": 13
          },
          "indices": 14,
          "material": 2
        }
      ]
    }
  ],
  "materials": [
    {
      "name": "ground_grey",
      "pbrMetallicRoughness": {
        "baseColorFactor": [
          0.4,
          0.41,
          0.44,
          1.0
        ],
        "roughnessFactor": 0.9,
        "metallicFactor": 0.0
      }
    },
    {
      "name": "crate",
      "pbrMetallicRoughness": {
        "baseColorFactor": [
          0.66,
          0.45,
          0.24,
          1.0
        ],
        "roughnessFactor": 0.75,
        "metallicFactor": 0.0
      }
    },
    {
      "name": "ball",
      "pbrMetallicRoughness": {
        "baseColorFactor": [
          0.22,
          0.45,
          0.72,
          1.0
        ],
        "roughnessFactor": 0.35,
        "metallicFactor": 0.1
      }
    },
    {
      "name": "stone",
      "pbrMetallicRoughness": {
        "baseColorFactor": [
          0.55,
          0.55,
          0.58,
          1.0
        ],
        "roughnessFactor": 0.95,
        "metallicFactor": 0.0
      }
    }
  ],
  "accessors": [
    {
      "bufferView": 0,
      "componentType": 5126,
      "count": 24,
      "type": "VEC3",
      "min": [
        -0.5,
        -0.5,
        -0.5
      ],
      "max": [
        0.5,
        0.5,
        0.5
      ]
    },
    {
      "bufferView": 1,
      "componentType": 5126,
      "count": 24,
      "type": "VEC3"
    },
    {
      "bufferView": 2,
      "componentType": 5126,
      "count": 24,
      "type": "VEC4"
    },
    {
      "bufferView": 3,
      "componentType": 5126,
      "count": 24,
      "type": "VEC2"
    },
    {
      "bufferView": 4,
      "componentType": 5125,
      "count": 36,
      "type": "SCALAR"
    },
    {
      "bufferView": 5,
      "componentType": 5126,
      "count": 273,
      "type": "VEC3",
      "min": [
        -0.5,
        -0.5,
        -0.5
      ],
      "max": [
        0.5,
        0.5,
        0.5
      ]
    },
    {
      "bufferView": 6,
      "componentType": 5126,
      "count": 273,
      "type": "VEC3"
    },
    {
      "bufferView": 7,
      "componentType": 5126,
      "count": 273,
      "type": "VEC4"
    },
    {
      "bufferView": 8,
      "componentType": 5126,
      "count": 273,
      "type": "VEC2"
    },
    {
      "bufferView": 9,
      "componentType": 5125,
      "count": 1440,
      "type": "SCALAR"
    },
    {
      "bufferView": 10,
      "componentType": 5126,
      "count": 24,
      "type": "VEC3",
      "min": [
        -0.3,
        -0.9,
        -0.3
      ],
      "max": [
        0.3,
        0.9,
        0.3
      ]
    },
    {
      "bufferView": 11,
      "componentType": 5126,
      "count": 24,
      "type": "VEC3"
    },
    {
      "bufferView": 12,
      "componentType": 5126,
      "count": 24,
      "type": "VEC4"
    },
    {
      "bufferView": 13,
      "componentType": 5126,
      "count": 24,
      "type": "VEC2"
    },
    {
      "bufferView": 14,
      "componentType": 5125,
      "count": 36,
      "type": "SCALAR"
    },
    {
      "bufferView": 15,
      "componentType": 5126,
      "count": 4,
      "type": "VEC3",
      "min": [
        -6.0,
        0.0,
        -11.0
      ],
      "max": [
        6.0,
        0.0,
        11.0
      ]
    },
    {
      "bufferView": 16,
      "componentType": 5126,
      "count": 4,
      "type": "VEC3"
    },
    {
      "bufferView": 17,
      "componentType": 5126,
      "count": 4,
      "type": "VEC4"
    },
    {
      "bufferView": 18,
      "componentType": 5126,
      "count": 4,
      "type": "VEC2"
    },
    {
      "bufferView": 19,
      "componentType": 5125,
      "count": 6,
      "type": "SCALAR"
    }
  ],
  "bufferViews": [
    {
      "buffer": 0,
      "byteOffset": 0,
      "byteLength": 288,
      "target": 34962
    },
    {
      "buffer": 0,
      "byteOffset": 288,
      "byteLength": 288,
      "target": 34962
    },
    {
      "buffer": 0,
      "byteOffset": 576,
      "byteLength": 384,
      "target": 34962
    },
    {
      "buffer": 0,
      "byteOffset": 960,
      "byteLength": 192,
      "target": 34962
    },
    {
      "buffer": 0,
      "byteOffset": 1152,
      "byteLength": 144,
      "target": 34963
    },
    {
      "buffer": 0,
      "byteOffset": 1296,
      "byteLength": 3276,
      "target": 34962
    },
    {
      "buffer": 0,
      "byteOffset": 4572,
      "byteLength": 3276,
      "target": 34962
    },
    {
      "buffer": 0,
      "byteOffset": 7848,
      "byteLength": 4368,
      "target": 34962
    },
    {
      "buffer": 0,
      "byteOffset": 12216,
      "byteLength": 2184,
      "target": 34962
    },
    {
      "buffer": 0,
      "byteOffset": 14400,
      "byteLength": 5760,
      "target": 34963
    },
    {
      "buffer": 0,
      "byteOffset": 20160,
      "byteLength": 288,
      "target": 34962
    },
    {
      "buffer": 0,
      "byteOffset": 20448,
      "byteLength": 288,
      "target": 34962
    },
    {
      "buffer": 0,
      "byteOffset": 20736,
      "byteLength": 384,
      "target": 34962
    },
    {
      "buffer": 0,
      "byteOffset": 21120,
      "byteLength": 192,
      "target": 34962
    },
    {
      "buffer": 0,
      "byteOffset": 21312,
      "byteLength": 144,
      "target": 34963
    },
    {
      "buffer": 0,
      "byteOffset": 21456,
      "byteLength": 48,
      "target": 34962
    },
    {
      "buffer": 0,
      "byteOffset": 21504,
      "byteLength": 48,
      "target": 34962
    },
    {
      "buffer": 0,
      "byteOffset": 21552,
      "byteLength": 64,
      "target": 34962
    },
    {
      "buffer": 0,
      "byteOffset": 21616,
      "byteLength": 32,
      "target": 34962
    },
    {
      "buffer": 0,
      "byteOffset": 21648,
      "byteLength": 24,
      "target": 34963
    }
  ],
  "buffers": [
    {
      "byteLength": 21672,
      "uri": "data:application/octet-stream;base64,"
    }
  ]
}
