{
  "asset": {
    "version": "2.0",
    "generator": "Substrate scripts/make_test_scene.py"
  },
  "scene": 0,
  "scenes": [
    {
      "name": "skin",
      "nodes": [
        0,
        1,
        2
      ]
    }
  ],
  "nodes": [
    {
      "name": "column",
      "mesh": 0,
      "skin": 0
    },
    {
      "name": "ground",
      "mesh": 1,
      "scale": [
        0.9,
        1.0,
        0.8
      ]
    },
    {
      "name": "joint_0",
      "translation": [
        0.0,
        0.0,
        0.0
      ],
      "children": [
        3
      ]
    },
    {
      "name": "joint_1",
      "translation": [
        0.0,
        1.2,
        0.0
      ],
      "children": [
        4
      ]
    },
    {
      "name": "joint_2",
      "translation": [
        0.0,
        1.2,
        0.0
      ],
      "children": [
        5
      ]
    },
    {
      "name": "joint_3",
      "translation": [
        0.0,
        1.2,
        0.0
      ],
      "children": [
        6
      ]
    },
    {
      "name": "joint_4",
      "translation": [
        0.0,
        1.2,
        0.0
      ]
    }
  ],
  "meshes": [
    {
      "name": "column",
      "primitives": [
        {
          "attributes": {
            "POSITION": 0,
            "NORMAL": 1,
            "TANGENT": 2,
            "TEXCOORD_0": 3,
            "JOINTS_0": 5,
            "WEIGHTS_0": 6
          },
          "indices": 4,
          "material": 0
        }
      ]
    },
    {
      "name": "ground",
      "primitives": [
        {
          "attributes": {
            "POSITION": 7,
            "NORMAL": 8,
            "TANGENT": 9,
            "TEXCOORD_0": 10
          },
          "indices": 11,
          "material": 1
        }
      ]
    }
  ],
  "materials": [
    {
      "name": "column",
      "pbrMetallicRoughness": {
        "baseColorFactor": [
          0.85,
          0.55,
          0.3,
          1.0
        ],
        "metallicFactor": 0.1,
        "roughnessFactor": 0.45
      }
    },
    {
      "name": "ground",
      "pbrMetallicRoughness": {
        "baseColorFactor": [
          0.32,
          0.34,
          0.36,
          1.0
        ],
        "metallicFactor": 0.0,
        "roughnessFactor": 0.9
      }
    }
  ],
  "skins": [
    {
      "name": "column",
      "inverseBindMatrices": 12,
      "joints": [
        2,
        3,
        4,
        5,
        6
      ]
    }
  ],
  "animations": [
    {
      "name": "sway",
      "samplers": [
        {
          "input": 13,
          "output": 14,
          "interpolation": "LINEAR"
        },
        {
          "input": 15,
          "output": 16,
          "interpolation": "LINEAR"
        },
        {
          "input": 17,
          "output": 18,
          "interpolation": "LINEAR"
        },
        {
          "input": 19,
          "output": 20,
          "interpolation": "LINEAR"
        },
        {
          "input": 21,
          "output": 22,
          "interpolation": "LINEAR"
        }
      ],
      "channels": [
        {
          "sampler": 0,
          "target": {
            "node": 2,
            "path": "rotation"
          }
        },
        {
          "sampler": 1,
          "target": {
            "node": 3,
            "path": "rotation"
          }
        },
        {
          "sampler": 2,
          "target": {
            "node": 4,
            "path": "rotation"
          }
        },
        {
          "sampler": 3,
          "target": {
            "node": 5,
            "path": "rotation"
          }
        },
        {
          "sampler": 4,
          "target": {
            "node": 6,
            "path": "rotation"
          }
        }
      ]
    }
  ],
  "accessors": [
    {
      "bufferView": 0,
      "componentType": 5126,
      "count": 200,
      "type": "VEC3",
      "min": [
        -0.35,
        0.0,
        -0.35
      ],
      "max": [
        0.35,
        4.8,
        0.35
      ]
    },
    {
      "bufferView": 1,
      "componentType": 5126,
      "count": 200,
      "type": "VEC3"
    },
    {
      "bufferView": 2,
      "componentType": 5126,
      "count": 200,
      "type": "VEC4"
    },
    {
      "bufferView": 3,
      "componentType": 5126,
      "count": 200,
      "type": "VEC2"
    },
    {
      "bufferView": 4,
      "componentType": 5125,
      "count": 1152,
      "type": "SCALAR"
    },
    {
      "bufferView": 5,
      "componentType": 5125,
      "count": 200,
      "type": "VEC4"
    },
    {
      "bufferView": 6,
      "componentType": 5126,
      "count": 200,
      "type": "VEC4"
    },
    {
      "bufferView": 7,
      "componentType": 5126,
      "count": 4,
      "type": "VEC3",
      "min": [
        -6.0,
        0.0,
        -11.0
      ],
      "max": [
        6.0,
        0.0,
        11.0
      ]
    },
    {
      "bufferView": 8,
      "componentType": 5126,
      "count": 4,
      "type": "VEC3"
    },
    {
      "bufferView": 9,
      "componentType": 5126,
      "count": 4,
      "type": "VEC4"
    },
    {
      "bufferView": 10,
      "componentType": 5126,
      "count": 4,
      "type": "VEC2"
    },
    {
      "bufferView": 11,
      "componentType": 5125,
      "count": 6,
      "type": "SCALAR"
    },
    {
      "bufferView": 12,
      "componentType": 5126,
      "count": 5,
      "type": "MAT4"
    },
    {
      "bufferView": 13,
      "componentType": 5126,
      "count": 21,
      "type": "SCALAR",
      "min": [
        0.0
      ],
      "max": [
        2.0
      ]
    },
    {
      "bufferView": 14,
      "componentType": 5126,
      "count": 21,
      "type": "VEC4"
    },
    {
      "bufferView": 15,
      "componentType": 5126,
      "count": 21,
      "type": "SCALAR",
      "min": [
        0.0
      ],
      "max": [
        2.0
      ]
    },
    {
      "bufferView": 16,
      "componentType": 5126,
      "count": 21,
      "type": "VEC4"
    },
    {
      "bufferView": 17,
      "componentType": 5126,
      "count": 21,
      "type": "SCALAR",
      "min": [
        0.0
      ],
      "max": [
        2.0
      ]
    },
    {
      "bufferView": 18,
      "componentType": 5126,
      "count": 21,
      "type": "VEC4"
    },
    {
      "bufferView": 19,
      "componentType": 5126,
      "count": 21,
      "type": "SCALAR",
      "min": [
        0.0
      ],
      "max": [
        2.0
      ]
    },
    {
      "bufferView": 20,
      "componentType": 5126,
      "count": 21,
      "type": "VEC4"
    },
    {
      "bufferView": 21,
      "componentType": 5126,
      "count": 21,
      "type": "SCALAR",
      "min": [
        0.0
      ],
      "max": [
        2.0
      ]
    },
    {
      "bufferView": 22,
      "componentType": 5126,
      "count": 21,
      "type": "VEC4"
    }
  ],
  "bufferViews": [
    {
      "buffer": 0,
      "byteOffset": 0,
      "byteLength": 2400,
      "target": 34962
    },
    {
      "buffer": 0,
      "byteOffset": 2400,
      "byteLength": 2400,
      "target": 34962
    },
    {
      "buffer": 0,
      "byteOffset": 4800,
      "byteLength": 3200,
      "target": 34962
    },
    {
      "buffer": 0,
      "byteOffset": 8000,
      "byteLength": 1600,
      "target": 34962
    },
    {
      "buffer": 0,
      "byteOffset": 9600,
      "byteLength": 4608,
      "target": 34963
    },
    {
      "buffer": 0,
      "byteOffset": 14208,
      "byteLength": 3200,
      "target": 34962
    },
    {
      "buffer": 0,
      "byteOffset": 17408,
      "byteLength": 3200,
      "target": 34962
    },
    {
      "buffer": 0,
      "byteOffset": 20608,
      "byteLength": 48,
      "target": 34962
    },
    {
      "buffer": 0,
      "byteOffset": 20656,
      "byteLength": 48,
      "target": 34962
    },
    {
      "buffer": 0,
      "byteOffset": 20704,
      "byteLength": 64,
      "target": 34962
    },
    {
      "buffer": 0,
      "byteOffset": 20768,
      "byteLength": 32,
      "target": 34962
    },
    {
      "buffer": 0,
      "byteOffset": 20800,
      "byteLength": 24,
      "target": 34963
    },
    {
      "buffer": 0,
      "byteOffset": 20824,
      "byteLength": 320
    },
    {
      "buffer": 0,
      "byteOffset": 21144,
      "byteLength": 84
    },
    {
      "buffer": 0,
      "byteOffset": 21228,
      "byteLength": 336
    },
    {
      "buffer": 0,
      "byteOffset": 21564,
      "byteLength": 84
    },
    {
      "buffer": 0,
      "byteOffset": 21648,
      "byteLength": 336
    },
    {
      "buffer": 0,
      "byteOffset": 21984,
      "byteLength": 84
    },
    {
      "buffer": 0,
      "byteOffset": 22068,
      "byteLength": 336
    },
    {
      "buffer": 0,
      "byteOffset": 22404,
      "byteLength": 84
    },
    {
      "buffer": 0,
      "byteOffset": 22488,
      "byteLength": 336
    },
    {
      "buffer": 0,
      "byteOffset": 22824,
      "byteLength": 84
    },
    {
      "buffer": 0,
      "byteOffset": 22908,
      "byteLength": 336
    }
  ],
  "buffers": [
    {
      "byteLength": 23244,
      "uri": "data:application/octet-stream;base64,"
    }
  ]
}
