{
  "asset": {
    "version": "2.0",
    "generator": "Substrate scripts/make_test_scene.py"
  },
  "extensionsUsed": [
    "KHR_lights_punctual"
  ],
  "extensions": {
    "KHR_lights_punctual": {
      "lights": [
        {
          "type": "point",
          "name": "lamp",
          "color": [
            1.0,
            0.9,
            0.75
          ],
          "intensity": 70.0,
          "range": 18.0
        }
      ]
    }
  },
  "scene": 0,
  "scenes": [
    {
      "name": "audio",
      "nodes": [
        0,
        1,
        2,
        3,
        4,
        5,
        6
      ]
    }
  ],
  "nodes": [
    {
      "name": "ground",
      "mesh": 0,
      "translation": [
        0.0,
        0.0,
        0.0
      ],
      "extras": {
        "substrate_collider": {
          "friction": 0.6
        }
      }
    },
    {
      "name": "wall",
      "mesh": 1,
      "translation": [
        0.0,
        2.0,
        2.0
      ],
      "scale": [
        11.0,
        4.0,
        0.5
      ],
      "extras": {
        "substrate_collider": {}
      }
    },
    {
      "name": "generator",
      "mesh": 2,
      "translation": [
        -1.5,
        0.6,
        5.5
      ],
      "scale": [
        1.2,
        1.2,
        1.2
      ],
      "extras": {
        "substrate_collider": {},
        "substrate_audio": {
          "file": "audio/atmosphere_hum.wav",
          "bus": "sfx",
          "volume": 0.9,
          "minDistance": 2.0,
          "maxDistance": 45.0,
          "attenuation": "inverse"
        }
      }
    },
    {
      "name": "bed",
      "translation": [
        0.0,
        2.0,
        0.0
      ],
      "extras": {
        "substrate_audio": {
          "file": "audio/atmosphere_crickets.wav",
          "bus": "ambience",
          "volume": 0.5,
          "spatial": false,
          "occlusion": false
        }
      }
    },
    {
      "name": "crate_rattle",
      "mesh": 3,
      "translation": [
        2.6,
        5.0,
        -1.0
      ],
      "scale": [
        0.7,
        0.7,
        0.7
      ],
      "extras": {
        "substrate_collider": {
          "motion": "dynamic",
          "mass": 8.0,
          "friction": 0.5,
          "restitution": 0.2
        },
        "substrate_audio": {
          "file": "audio/atmosphere_hum.wav",
          "bus": "sfx",
          "volume": 0.7,
          "pitch": 1.3,
          "minDistance": 1.5,
          "load": "decode"
        }
      }
    },
    {
      "name": "player",
      "translation": [
        0.0,
        0.9,
        -4.0
      ],
      "extras": {
        "substrate_collider": {
          "motion": "character",
          "radius": 0.3,
          "halfHeight": 0.6,
          "moveSpeed": 4.0,
          "jumpSpeed": 4.5
        }
      }
    },
    {
      "name": "lamp_node",
      "extensions": {
        "KHR_lights_punctual": {
          "light": 0
        }
      },
      "translation": [
        0.5,
        3.5,
        -4.0
      ]
    }
  ],
  "meshes": [
    {
      "name": "ground",
      "primitives": [
        {
          "attributes": {
            "POSITION": 5,
            "NORMAL": 6,
            "TANGENT": 7,
            "TEXCOORD_0": 8
          },
          "indices": 9,
          "material": 0
        }
      ]
    },
    {
      "name": "wall",
      "primitives": [
        {
          "attributes": {
            "POSITION": 0,
            "NORMAL": 1,
            "TANGENT": 2,
            "TEXCOORD_0": 3
          },
          "indices": 4,
          "material": 1
        }
      ]
    },
    {
      "name": "machine",
      "primitives": [
        {
          "attributes": {
            "POSITION": 0,
            "NORMAL": 1,
            "TANGENT": 2,
            "TEXCOORD_0": 3
          },
          "indices": 4,
          "material": 2
        }
      ]
    },
    {
      "name": "crate",
      "primitives": [
        {
          "attributes": {
            "POSITION": 0,
            "NORMAL": 1,
            "TANGENT": 2,
            "TEXCOORD_0": 3
          },
          "indices": 4,
          "material": 3
        }
      ]
    }
  ],
  "materials": [
    {
      "name": "floor",
      "pbrMetallicRoughness": {
        "baseColorFactor": [
          0.38,
          0.39,
          0.42,
          1.0
        ],
        "roughnessFactor": 0.9,
        "metallicFactor": 0.0
      }
    },
    {
      "name": "wall",
      "pbrMetallicRoughness": {
        "baseColorFactor": [
          0.52,
          0.5,
          0.47,
          1.0
        ],
        "roughnessFactor": 0.95,
        "metallicFactor": 0.0
      }
    },
    {
      "name": "machine",
      "pbrMetallicRoughness": {
        "baseColorFactor": [
          0.24,
          0.46,
          0.4,
          1.0
        ],
        "roughnessFactor": 0.4,
        "metallicFactor": 0.3
      }
    },
    {
      "name": "crate",
      "pbrMetallicRoughness": {
        "baseColorFactor": [
          0.66,
          0.45,
          0.24,
          1.0
        ],
        "roughnessFactor": 0.75,
        "metallicFactor": 0.0
      }
    }
  ],
  "accessors": [
    {
      "bufferView": 0,
      "componentType": 5126,
      "count": 24,
      "type": "VEC3",
      "min": [
        -0.5,
        -0.5,
        -0.5
      ],
      "max": [
        0.5,
        0.5,
        0.5
      ]
    },
    {
      "bufferView": 1,
      "componentType": 5126,
      "count": 24,
      "type": "VEC3"
    },
    {
      "bufferView": 2,
      "componentType": 5126,
      "count": 24,
      "type": "VEC4"
    },
    {
      "bufferView": 3,
      "componentType": 5126,
      "count": 24,
      "type": "VEC2"
    },
    {
      "bufferView": 4,
      "componentType": 5125,
      "count": 36,
      "type": "SCALAR"
    },
    {
      "bufferView": 5,
      "componentType": 5126,
      "count": 4,
      "type": "VEC3",
      "min": [
        -6.0,
        0.0,
        -11.0
      ],
      "max": [
        6.0,
        0.0,
        11.0
      ]
    },
    {
      "bufferView": 6,
      "componentType": 5126,
      "count": 4,
      "type": "VEC3"
    },
    {
      "bufferView": 7,
      "componentType": 5126,
      "count": 4,
      "type": "VEC4"
    },
    {
      "bufferView": 8,
      "componentType": 5126,
      "count": 4,
      "type": "VEC2"
    },
    {
      "bufferView": 9,
      "componentType": 5125,
      "count": 6,
      "type": "SCALAR"
    }
  ],
  "bufferViews": [
    {
      "buffer": 0,
      "byteOffset": 0,
      "byteLength": 288,
      "target": 34962
    },
    {
      "buffer": 0,
      "byteOffset": 288,
      "byteLength": 288,
      "target": 34962
    },
    {
      "buffer": 0,
      "byteOffset": 576,
      "byteLength": 384,
      "target": 34962
    },
    {
      "buffer": 0,
      "byteOffset": 960,
      "byteLength": 192,
      "target": 34962
    },
    {
      "buffer": 0,
      "byteOffset": 1152,
      "byteLength": 144,
      "target": 34963
    },
    {
      "buffer": 0,
      "byteOffset": 1296,
      "byteLength": 48,
      "target": 34962
    },
    {
      "buffer": 0,
      "byteOffset": 1344,
      "byteLength": 48,
      "target": 34962
    },
    {
      "buffer": 0,
      "byteOffset": 1392,
      "byteLength": 64,
      "target": 34962
    },
    {
      "buffer": 0,
      "byteOffset": 1456,
      "byteLength": 32,
      "target": 34962
    },
    {
      "buffer": 0,
      "byteOffset": 1488,
      "byteLength": 24,
      "target": 34963
    }
  ],
  "buffers": [
    {
      "byteLength": 1512,
      "uri": "data:application/octet-stream;base64,"
    }
  ]
}
