{
  "asset": {
    "version": "2.0",
    "generator": "Substrate scripts/make_test_scene.py"
  },
  "extensionsUsed": [
    "KHR_lights_punctual"
  ],
  "extensions": {
    "KHR_lights_punctual": {
      "lights": [
        {
          "type": "point",
          "name": "lamp",
          "color": [
            1.0,
            0.9,
            0.78
          ],
          "intensity": 70.0,
          "range": 18.0
        }
      ]
    }
  },
  "scene": 0,
  "scenes": [
    {
      "name": "cloth",
      "nodes": [
        0,
        1,
        2,
        3,
        4
      ]
    }
  ],
  "nodes": [
    {
      "name": "ground",
      "mesh": 0,
      "extras": {
        "substrate_collider": {
          "friction": 0.6
        }
      }
    },
    {
      "name": "FABRIC_Curtain",
      "mesh": 1,
      "translation": [
        -1.2,
        2.6,
        -1.2
      ]
    },
    {
      "name": "FABRIC_Flag",
      "mesh": 2,
      "translation": [
        1.6,
        2.6,
        -1.2
      ]
    },
    {
      "name": "crate",
      "mesh": 3,
      "translation": [
        0.0,
        0.6,
        -1.2
      ],
      "scale": [
        1.2,
        1.2,
        1.2
      ],
      "extras": {
        "substrate_collider": {
          "shape": "box",
          "motion": "static"
        }
      }
    },
    {
      "name": "lamp_node",
      "extensions": {
        "KHR_lights_punctual": {
          "light": 0
        }
      },
      "translation": [
        0.5,
        4.0,
        -3.5
      ]
    }
  ],
  "meshes": [
    {
      "name": "ground",
      "primitives": [
        {
          "attributes": {
            "POSITION": 17,
            "NORMAL": 18,
            "TANGENT": 19,
            "TEXCOORD_0": 20
          },
          "indices": 21,
          "material": 0
        }
      ]
    },
    {
      "name": "FABRIC_Curtain",
      "primitives": [
        {
          "attributes": {
            "POSITION": 0,
            "NORMAL": 1,
            "TANGENT": 2,
            "TEXCOORD_0": 3,
            "_PIN_WEIGHT": 5
          },
          "indices": 4,
          "material": 1
        }
      ]
    },
    {
      "name": "FABRIC_Flag",
      "primitives": [
        {
          "attributes": {
            "POSITION": 6,
            "NORMAL": 7,
            "TANGENT": 8,
            "TEXCOORD_0": 9,
            "_PIN_WEIGHT": 11
          },
          "indices": 10,
          "material": 2
        }
      ]
    },
    {
      "name": "crate",
      "primitives": [
        {
          "attributes": {
            "POSITION": 12,
            "NORMAL": 13,
            "TANGENT": 14,
            "TEXCOORD_0": 15
          },
          "indices": 16,
          "material": 3
        }
      ]
    }
  ],
  "materials": [
    {
      "name": "ground_grey",
      "pbrMetallicRoughness": {
        "baseColorFactor": [
          0.4,
          0.41,
          0.44,
          1.0
        ],
        "roughnessFactor": 0.9,
        "metallicFactor": 0.0
      }
    },
    {
      "name": "curtain_red",
      "doubleSided": true,
      "pbrMetallicRoughness": {
        "baseColorFactor": [
          0.62,
          0.16,
          0.18,
          1.0
        ],
        "roughnessFactor": 0.85,
        "metallicFactor": 0.0
      }
    },
    {
      "name": "flag_blue",
      "doubleSided": true,
      "pbrMetallicRoughness": {
        "baseColorFactor": [
          0.18,
          0.32,
          0.62,
          1.0
        ],
        "roughnessFactor": 0.85,
        "metallicFactor": 0.0
      }
    },
    {
      "name": "crate",
      "pbrMetallicRoughness": {
        "baseColorFactor": [
          0.66,
          0.45,
          0.24,
          1.0
        ],
        "roughnessFactor": 0.75,
        "metallicFactor": 0.0
      }
    }
  ],
  "accessors": [
    {
      "bufferView": 0,
      "componentType": 5126,
      "count": 169,
      "type": "VEC3",
      "min": [
        0.0,
        0.0,
        0.0
      ],
      "max": [
        2.4000000000000004,
        0.0,
        2.4000000000000004
      ]
    },
    {
      "bufferView": 1,
      "componentType": 5126,
      "count": 169,
      "type": "VEC3"
    },
    {
      "bufferView": 2,
      "componentType": 5126,
      "count": 169,
      "type": "VEC4"
    },
    {
      "bufferView": 3,
      "componentType": 5126,
      "count": 169,
      "type": "VEC2"
    },
    {
      "bufferView": 4,
      "componentType": 5125,
      "count": 864,
      "type": "SCALAR"
    },
    {
      "bufferView": 5,
      "componentType": 5126,
      "count": 169,
      "type": "SCALAR"
    },
    {
      "bufferView": 6,
      "componentType": 5126,
      "count": 169,
      "type": "VEC3",
      "min": [
        0.0,
        0.0,
        0.0
      ],
      "max": [
        2.4000000000000004,
        0.0,
        2.4000000000000004
      ]
    },
    {
      "bufferView": 7,
      "componentType": 5126,
      "count": 169,
      "type": "VEC3"
    },
    {
      "bufferView": 8,
      "componentType": 5126,
      "count": 169,
      "type": "VEC4"
    },
    {
      "bufferView": 9,
      "componentType": 5126,
      "count": 169,
      "type": "VEC2"
    },
    {
      "bufferView": 10,
      "componentType": 5125,
      "count": 864,
      "type": "SCALAR"
    },
    {
      "bufferView": 11,
      "componentType": 5126,
      "count": 169,
      "type": "SCALAR"
    },
    {
      "bufferView": 12,
      "componentType": 5126,
      "count": 24,
      "type": "VEC3",
      "min": [
        -0.5,
        -0.5,
        -0.5
      ],
      "max": [
        0.5,
        0.5,
        0.5
      ]
    },
    {
      "bufferView": 13,
      "componentType": 5126,
      "count": 24,
      "type": "VEC3"
    },
    {
      "bufferView": 14,
      "componentType": 5126,
      "count": 24,
      "type": "VEC4"
    },
    {
      "bufferView": 15,
      "componentType": 5126,
      "count": 24,
      "type": "VEC2"
    },
    {
      "bufferView": 16,
      "componentType": 5125,
      "count": 36,
      "type": "SCALAR"
    },
    {
      "bufferView": 17,
      "componentType": 5126,
      "count": 4,
      "type": "VEC3",
      "min": [
        -6.0,
        0.0,
        -11.0
      ],
      "max": [
        6.0,
        0.0,
        11.0
      ]
    },
    {
      "bufferView": 18,
      "componentType": 5126,
      "count": 4,
      "type": "VEC3"
    },
    {
      "bufferView": 19,
      "componentType": 5126,
      "count": 4,
      "type": "VEC4"
    },
    {
      "bufferView": 20,
      "componentType": 5126,
      "count": 4,
      "type": "VEC2"
    },
    {
      "bufferView": 21,
      "componentType": 5125,
      "count": 6,
      "type": "SCALAR"
    }
  ],
  "bufferViews": [
    {
      "buffer": 0,
      "byteOffset": 0,
      "byteLength": 2028,
      "target": 34962
    },
    {
      "buffer": 0,
      "byteOffset": 2028,
      "byteLength": 2028,
      "target": 34962
    },
    {
      "buffer": 0,
      "byteOffset": 4056,
      "byteLength": 2704,
      "target": 34962
    },
    {
      "buffer": 0,
      "byteOffset": 6760,
      "byteLength": 1352,
      "target": 34962
    },
    {
      "buffer": 0,
      "byteOffset": 8112,
      "byteLength": 3456,
      "target": 34963
    },
    {
      "buffer": 0,
      "byteOffset": 11568,
      "byteLength": 676,
      "target": 34962
    },
    {
      "buffer": 0,
      "byteOffset": 12244,
      "byteLength": 2028,
      "target": 34962
    },
    {
      "buffer": 0,
      "byteOffset": 14272,
      "byteLength": 2028,
      "target": 34962
    },
    {
      "buffer": 0,
      "byteOffset": 16300,
      "byteLength": 2704,
      "target": 34962
    },
    {
      "buffer": 0,
      "byteOffset": 19004,
      "byteLength": 1352,
      "target": 34962
    },
    {
      "buffer": 0,
      "byteOffset": 20356,
      "byteLength": 3456,
      "target": 34963
    },
    {
      "buffer": 0,
      "byteOffset": 23812,
      "byteLength": 676,
      "target": 34962
    },
    {
      "buffer": 0,
      "byteOffset": 24488,
      "byteLength": 288,
      "target": 34962
    },
    {
      "buffer": 0,
      "byteOffset": 24776,
      "byteLength": 288,
      "target": 34962
    },
    {
      "buffer": 0,
      "byteOffset": 25064,
      "byteLength": 384,
      "target": 34962
    },
    {
      "buffer": 0,
      "byteOffset": 25448,
      "byteLength": 192,
      "target": 34962
    },
    {
      "buffer": 0,
      "byteOffset": 25640,
      "byteLength": 144,
      "target": 34963
    },
    {
      "buffer": 0,
      "byteOffset": 25784,
      "byteLength": 48,
      "target": 34962
    },
    {
      "buffer": 0,
      "byteOffset": 25832,
      "byteLength": 48,
      "target": 34962
    },
    {
      "buffer": 0,
      "byteOffset": 25880,
      "byteLength": 64,
      "target": 34962
    },
    {
      "buffer": 0,
      "byteOffset": 25944,
      "byteLength": 32,
      "target": 34962
    },
    {
      "buffer": 0,
      "byteOffset": 25976,
      "byteLength": 24,
      "target": 34963
    }
  ],
  "buffers": [
    {
      "byteLength": 26000,
      "uri": "data:application/octet-stream;base64,"
    }
  ]
}
