{
  "asset": {
    "version": "2.0",
    "generator": "Substrate scripts/make_test_scene.py"
  },
  "extensionsUsed": [
    "KHR_lights_punctual"
  ],
  "extensions": {
    "KHR_lights_punctual": {
      "lights": [
        {
          "type": "directional",
          "name": "night",
          "color": [
            0.55,
            0.62,
            0.8
          ],
          "intensity": 0.12
        },
        {
          "type": "point",
          "name": "firelight",
          "color": [
            1.0,
            0.58,
            0.22
          ],
          "intensity": 2.6,
          "range": 1.8
        }
      ]
    }
  },
  "scene": 0,
  "scenes": [
    {
      "name": "fire",
      "nodes": [
        0,
        1,
        2,
        3,
        4,
        5,
        6,
        7,
        8
      ]
    }
  ],
  "nodes": [
    {
      "name": "floor",
      "mesh": 0,
      "translation": [
        0.0,
        0.0,
        0.0
      ]
    },
    {
      "name": "back_wall",
      "mesh": 1,
      "translation": [
        0.0,
        4.5,
        7.0
      ],
      "scale": [
        30.0,
        14.0,
        0.4
      ]
    },
    {
      "name": "plinth",
      "mesh": 1,
      "translation": [
        0.0,
        0.5,
        0.0
      ],
      "scale": [
        0.45,
        1.0,
        0.45
      ]
    },
    {
      "name": "night_node",
      "rotation": [
        -0.9612616959383189,
        0.0,
        0.0,
        0.27563735581699916
      ],
      "extensions": {
        "KHR_lights_punctual": {
          "light": 0
        }
      }
    },
    {
      "name": "firelight_node",
      "translation": [
        0.0,
        1.25,
        0.0
      ],
      "extensions": {
        "KHR_lights_punctual": {
          "light": 1
        }
      }
    },
    {
      "name": "core",
      "translation": [
        0.0,
        1.0,
        0.0
      ],
      "extras": {
        "substrate_emitter": {
          "rate": 90.0,
          "lifetime": 0.42,
          "lifetimeJitter": 0.18,
          "velocity": [
            0.0,
            0.32,
            0.0
          ],
          "speedJitter": 0.15,
          "coneAngle": 5.0,
          "boxExtent": [
            0.055,
            0.02,
            0.055
          ],
          "gravity": [
            0.0,
            0.2,
            0.0
          ],
          "drag": 1.9,
          "colorStart": [
            1.0,
            0.88,
            0.6,
            1.0
          ],
          "colorEnd": [
            1.0,
            0.55,
            0.16,
            0.0
          ],
          "sizeStart": 0.1,
          "sizeEnd": 0.3,
          "texture": 0,
          "flipbookCols": 4,
          "flipbookRows": 4,
          "flipbookLoops": 0.5,
          "erosion": 0.12,
          "emissive": true,
          "emissiveIntensity": 2.4
        }
      }
    },
    {
      "name": "flame",
      "translation": [
        0.0,
        1.0,
        0.0
      ],
      "extras": {
        "substrate_emitter": {
          "rate": 60.0,
          "lifetime": 0.78,
          "lifetimeJitter": 0.22,
          "velocity": [
            0.0,
            0.6,
            0.0
          ],
          "speedJitter": 0.22,
          "coneAngle": 11.0,
          "boxExtent": [
            0.07,
            0.02,
            0.07
          ],
          "gravity": [
            0.0,
            0.2,
            0.0
          ],
          "drag": 2.0,
          "colorStart": [
            1.0,
            0.58,
            0.16,
            1.0
          ],
          "colorEnd": [
            0.75,
            0.13,
            0.02,
            0.0
          ],
          "sizeStart": 0.16,
          "sizeEnd": 0.46,
          "texture": 0,
          "flipbookCols": 4,
          "flipbookRows": 4,
          "flipbookLoops": 0.4,
          "erosion": 0.62,
          "emissive": true,
          "emissiveIntensity": 2.2
        }
      }
    },
    {
      "name": "smoke",
      "translation": [
        0.0,
        1.42,
        0.0
      ],
      "extras": {
        "substrate_emitter": {
          "rate": 10.0,
          "lifetime": 4.2,
          "lifetimeJitter": 0.3,
          "velocity": [
            0.0,
            0.3,
            0.0
          ],
          "speedJitter": 0.45,
          "coneAngle": 24.0,
          "boxExtent": [
            0.075,
            0.02,
            0.075
          ],
          "gravity": [
            0.05,
            0.14,
            0.02
          ],
          "drag": 0.9,
          "colorStart": [
            0.035,
            0.033,
            0.032,
            0.22
          ],
          "colorEnd": [
            0.14,
            0.14,
            0.145,
            0.0
          ],
          "sizeStart": 0.34,
          "sizeEnd": 1.3,
          "texture": 1,
          "flipbookCols": 4,
          "flipbookRows": 4,
          "flipbookLoops": 0.25,
          "spin": 0.5,
          "erosion": 0.7
        }
      }
    },
    {
      "name": "embers",
      "translation": [
        0.0,
        1.0,
        0.0
      ],
      "extras": {
        "substrate_emitter": {
          "rate": 9.0,
          "lifetime": 1.8,
          "lifetimeJitter": 0.35,
          "velocity": [
            0.0,
            1.15,
            0.0
          ],
          "speedJitter": 0.6,
          "coneAngle": 30.0,
          "boxExtent": [
            0.05,
            0.02,
            0.05
          ],
          "gravity": [
            0.0,
            -1.5,
            0.0
          ],
          "drag": 0.4,
          "colorStart": [
            1.0,
            0.55,
            0.12,
            1.0
          ],
          "colorEnd": [
            0.45,
            0.06,
            0.01,
            0.0
          ],
          "sizeStart": 0.014,
          "sizeEnd": 0.005,
          "emissive": true,
          "emissiveIntensity": 4.0,
          "collides": true,
          "restitution": 0.25
        }
      }
    }
  ],
  "meshes": [
    {
      "name": "floor",
      "primitives": [
        {
          "attributes": {
            "POSITION": 5,
            "NORMAL": 6,
            "TANGENT": 7,
            "TEXCOORD_0": 8
          },
          "indices": 9,
          "material": 0
        }
      ]
    },
    {
      "name": "block",
      "primitives": [
        {
          "attributes": {
            "POSITION": 0,
            "NORMAL": 1,
            "TANGENT": 2,
            "TEXCOORD_0": 3
          },
          "indices": 4,
          "material": 1
        }
      ]
    }
  ],
  "materials": [
    {
      "name": "floor_dark",
      "pbrMetallicRoughness": {
        "baseColorFactor": [
          0.2,
          0.19,
          0.18,
          1.0
        ],
        "roughnessFactor": 0.95,
        "metallicFactor": 0.0
      }
    },
    {
      "name": "stone_dark",
      "pbrMetallicRoughness": {
        "baseColorFactor": [
          0.26,
          0.24,
          0.22,
          1.0
        ],
        "roughnessFactor": 0.9,
        "metallicFactor": 0.0
      }
    }
  ],
  "images": [
    {
      "uri": "flame_sheet.png"
    },
    {
      "uri": "smoke_sheet.png"
    }
  ],
  "accessors": [
    {
      "bufferView": 0,
      "componentType": 5126,
      "count": 24,
      "type": "VEC3",
      "min": [
        -0.5,
        -0.5,
        -0.5
      ],
      "max": [
        0.5,
        0.5,
        0.5
      ]
    },
    {
      "bufferView": 1,
      "componentType": 5126,
      "count": 24,
      "type": "VEC3"
    },
    {
      "bufferView": 2,
      "componentType": 5126,
      "count": 24,
      "type": "VEC4"
    },
    {
      "bufferView": 3,
      "componentType": 5126,
      "count": 24,
      "type": "VEC2"
    },
    {
      "bufferView": 4,
      "componentType": 5125,
      "count": 36,
      "type": "SCALAR"
    },
    {
      "bufferView": 5,
      "componentType": 5126,
      "count": 4,
      "type": "VEC3",
      "min": [
        -6.0,
        0.0,
        -11.0
      ],
      "max": [
        6.0,
        0.0,
        11.0
      ]
    },
    {
      "bufferView": 6,
      "componentType": 5126,
      "count": 4,
      "type": "VEC3"
    },
    {
      "bufferView": 7,
      "componentType": 5126,
      "count": 4,
      "type": "VEC4"
    },
    {
      "bufferView": 8,
      "componentType": 5126,
      "count": 4,
      "type": "VEC2"
    },
    {
      "bufferView": 9,
      "componentType": 5125,
      "count": 6,
      "type": "SCALAR"
    }
  ],
  "bufferViews": [
    {
      "buffer": 0,
      "byteOffset": 0,
      "byteLength": 288,
      "target": 34962
    },
    {
      "buffer": 0,
      "byteOffset": 288,
      "byteLength": 288,
      "target": 34962
    },
    {
      "buffer": 0,
      "byteOffset": 576,
      "byteLength": 384,
      "target": 34962
    },
    {
      "buffer": 0,
      "byteOffset": 960,
      "byteLength": 192,
      "target": 34962
    },
    {
      "buffer": 0,
      "byteOffset": 1152,
      "byteLength": 144,
      "target": 34963
    },
    {
      "buffer": 0,
      "byteOffset": 1296,
      "byteLength": 48,
      "target": 34962
    },
    {
      "buffer": 0,
      "byteOffset": 1344,
      "byteLength": 48,
      "target": 34962
    },
    {
      "buffer": 0,
      "byteOffset": 1392,
      "byteLength": 64,
      "target": 34962
    },
    {
      "buffer": 0,
      "byteOffset": 1456,
      "byteLength": 32,
      "target": 34962
    },
    {
      "buffer": 0,
      "byteOffset": 1488,
      "byteLength": 24,
      "target": 34963
    }
  ],
  "buffers": [
    {
      "byteLength": 1512,
      "uri": "data:application/octet-stream;base64,"
    }
  ]
}
