{
  "asset": {
    "version": "2.0",
    "generator": "Substrate scripts/make_test_scene.py"
  },
  "scene": 0,
  "scenes": [
    {
      "name": "morph",
      "nodes": [
        0,
        1
      ]
    }
  ],
  "nodes": [
    {
      "name": "sheet",
      "mesh": 0
    },
    {
      "name": "ground",
      "mesh": 1,
      "scale": [
        1.6,
        1.0,
        1.6
      ]
    }
  ],
  "meshes": [
    {
      "name": "sheet",
      "weights": [
        0.0,
        0.0
      ],
      "primitives": [
        {
          "attributes": {
            "POSITION": 0,
            "NORMAL": 1,
            "TANGENT": 2,
            "TEXCOORD_0": 3
          },
          "indices": 4,
          "material": 0,
          "targets": [
            {
              "POSITION": 5,
              "NORMAL": 6
            },
            {
              "POSITION": 7,
              "NORMAL": 8
            }
          ]
        }
      ]
    },
    {
      "name": "ground",
      "primitives": [
        {
          "attributes": {
            "POSITION": 9,
            "NORMAL": 10,
            "TANGENT": 11,
            "TEXCOORD_0": 12
          },
          "indices": 13,
          "material": 1
        }
      ]
    }
  ],
  "materials": [
    {
      "name": "sheet",
      "doubleSided": true,
      "pbrMetallicRoughness": {
        "baseColorFactor": [
          0.8,
          0.45,
          0.35,
          1.0
        ],
        "metallicFactor": 0.0,
        "roughnessFactor": 0.55
      }
    },
    {
      "name": "ground",
      "pbrMetallicRoughness": {
        "baseColorFactor": [
          0.32,
          0.34,
          0.36,
          1.0
        ],
        "metallicFactor": 0.0,
        "roughnessFactor": 0.9
      }
    }
  ],
  "animations": [
    {
      "name": "ripple",
      "samplers": [
        {
          "input": 14,
          "output": 15,
          "interpolation": "LINEAR"
        }
      ],
      "channels": [
        {
          "sampler": 0,
          "target": {
            "node": 0,
            "path": "weights"
          }
        }
      ]
    }
  ],
  "accessors": [
    {
      "bufferView": 0,
      "componentType": 5126,
      "count": 625,
      "type": "VEC3",
      "min": [
        -2.5,
        0.05,
        0.0
      ],
      "max": [
        2.5,
        3.25,
        0.0
      ]
    },
    {
      "bufferView": 1,
      "componentType": 5126,
      "count": 625,
      "type": "VEC3"
    },
    {
      "bufferView": 2,
      "componentType": 5126,
      "count": 625,
      "type": "VEC4"
    },
    {
      "bufferView": 3,
      "componentType": 5126,
      "count": 625,
      "type": "VEC2"
    },
    {
      "bufferView": 4,
      "componentType": 5125,
      "count": 3456,
      "type": "SCALAR"
    },
    {
      "bufferView": 5,
      "componentType": 5126,
      "count": 625,
      "type": "VEC3"
    },
    {
      "bufferView": 6,
      "componentType": 5126,
      "count": 625,
      "type": "VEC3"
    },
    {
      "bufferView": 7,
      "componentType": 5126,
      "count": 625,
      "type": "VEC3"
    },
    {
      "bufferView": 8,
      "componentType": 5126,
      "count": 625,
      "type": "VEC3"
    },
    {
      "bufferView": 9,
      "componentType": 5126,
      "count": 4,
      "type": "VEC3",
      "min": [
        -6.0,
        0.0,
        -11.0
      ],
      "max": [
        6.0,
        0.0,
        11.0
      ]
    },
    {
      "bufferView": 10,
      "componentType": 5126,
      "count": 4,
      "type": "VEC3"
    },
    {
      "bufferView": 11,
      "componentType": 5126,
      "count": 4,
      "type": "VEC4"
    },
    {
      "bufferView": 12,
      "componentType": 5126,
      "count": 4,
      "type": "VEC2"
    },
    {
      "bufferView": 13,
      "componentType": 5125,
      "count": 6,
      "type": "SCALAR"
    },
    {
      "bufferView": 14,
      "componentType": 5126,
      "count": 17,
      "type": "SCALAR",
      "min": [
        0.0
      ],
      "max": [
        4.0
      ]
    },
    {
      "bufferView": 15,
      "componentType": 5126,
      "count": 34,
      "type": "SCALAR"
    }
  ],
  "bufferViews": [
    {
      "buffer": 0,
      "byteOffset": 0,
      "byteLength": 7500,
      "target": 34962
    },
    {
      "buffer": 0,
      "byteOffset": 7500,
      "byteLength": 7500,
      "target": 34962
    },
    {
      "buffer": 0,
      "byteOffset": 15000,
      "byteLength": 10000,
      "target": 34962
    },
    {
      "buffer": 0,
      "byteOffset": 25000,
      "byteLength": 5000,
      "target": 34962
    },
    {
      "buffer": 0,
      "byteOffset": 30000,
      "byteLength": 13824,
      "target": 34963
    },
    {
      "buffer": 0,
      "byteOffset": 43824,
      "byteLength": 7500,
      "target": 34962
    },
    {
      "buffer": 0,
      "byteOffset": 51324,
      "byteLength": 7500,
      "target": 34962
    },
    {
      "buffer": 0,
      "byteOffset": 58824,
      "byteLength": 7500,
      "target": 34962
    },
    {
      "buffer": 0,
      "byteOffset": 66324,
      "byteLength": 7500,
      "target": 34962
    },
    {
      "buffer": 0,
      "byteOffset": 73824,
      "byteLength": 48,
      "target": 34962
    },
    {
      "buffer": 0,
      "byteOffset": 73872,
      "byteLength": 48,
      "target": 34962
    },
    {
      "buffer": 0,
      "byteOffset": 73920,
      "byteLength": 64,
      "target": 34962
    },
    {
      "buffer": 0,
      "byteOffset": 73984,
      "byteLength": 32,
      "target": 34962
    },
    {
      "buffer": 0,
      "byteOffset": 74016,
      "byteLength": 24,
      "target": 34963
    },
    {
      "buffer": 0,
      "byteOffset": 74040,
      "byteLength": 68
    },
    {
      "buffer": 0,
      "byteOffset": 74108,
      "byteLength": 136
    }
  ],
  "buffers": [
    {
      "byteLength": 74244,
      "uri": "data:application/octet-stream;base64,"
    }
  ]
}
