{
  "asset": {
    "version": "2.0",
    "generator": "Substrate scripts/make_test_scene.py"
  },
  "scene": 0,
  "scenes": [
    {
      "name": "sphere",
      "nodes": [
        0
      ]
    }
  ],
  "nodes": [
    {
      "name": "sphere",
      "mesh": 0
    }
  ],
  "meshes": [
    {
      "name": "sphere",
      "primitives": [
        {
          "attributes": {
            "POSITION": 0,
            "NORMAL": 1,
            "TANGENT": 2,
            "TEXCOORD_0": 3
          },
          "indices": 4,
          "material": 0
        }
      ]
    }
  ],
  "materials": [
    {
      "name": "mirror",
      "pbrMetallicRoughness": {
        "baseColorFactor": [
          0.95,
          0.95,
          0.95,
          1.0
        ],
        "metallicFactor": 1.0,
        "roughnessFactor": 0.0
      }
    }
  ],
  "accessors": [
    {
      "bufferView": 0,
      "componentType": 5126,
      "count": 4753,
      "type": "VEC3",
      "min": [
        -0.5,
        -0.5,
        -0.5
      ],
      "max": [
        0.5,
        0.5,
        0.5
      ]
    },
    {
      "bufferView": 1,
      "componentType": 5126,
      "count": 4753,
      "type": "VEC3"
    },
    {
      "bufferView": 2,
      "componentType": 5126,
      "count": 4753,
      "type": "VEC4"
    },
    {
      "bufferView": 3,
      "componentType": 5126,
      "count": 4753,
      "type": "VEC2"
    },
    {
      "bufferView": 4,
      "componentType": 5125,
      "count": 27648,
      "type": "SCALAR"
    }
  ],
  "bufferViews": [
    {
      "buffer": 0,
      "byteOffset": 0,
      "byteLength": 57036,
      "target": 34962
    },
    {
      "buffer": 0,
      "byteOffset": 57036,
      "byteLength": 57036,
      "target": 34962
    },
    {
      "buffer": 0,
      "byteOffset": 114072,
      "byteLength": 76048,
      "target": 34962
    },
    {
      "buffer": 0,
      "byteOffset": 190120,
      "byteLength": 38024,
      "target": 34962
    },
    {
      "buffer": 0,
      "byteOffset": 228144,
      "byteLength": 110592,
      "target": 34963
    }
  ],
  "buffers": [
    {
      "byteLength": 338736,
      "uri": "data:application/octet-stream;base64,"
    }
  ]
}
