{
  "asset": {
    "version": "2.0",
    "generator": "Substrate scripts/make_test_scene.py"
  },
  "extensionsUsed": [
    "KHR_lights_punctual"
  ],
  "extensions": {
    "KHR_lights_punctual": {
      "lights": [
        {
          "type": "point",
          "name": "ring_0_bright",
          "color": [
            1.0,
            0.85,
            0.65
          ],
          "intensity": 60.0,
          "range": 12.0
        },
        {
          "type": "point",
          "name": "ring_1_dim",
          "color": [
            0.3,
            0.45,
            1.0
          ],
          "intensity": 3.0,
          "range": 12.0
        },
        {
          "type": "point",
          "name": "ring_2_bright",
          "color": [
            1.0,
            0.85,
            0.65
          ],
          "intensity": 60.0,
          "range": 12.0
        },
        {
          "type": "point",
          "name": "ring_3_dim",
          "color": [
            0.3,
            0.45,
            1.0
          ],
          "intensity": 3.0,
          "range": 12.0
        },
        {
          "type": "point",
          "name": "ring_4_bright",
          "color": [
            1.0,
            0.85,
            0.65
          ],
          "intensity": 60.0,
          "range": 12.0
        },
        {
          "type": "point",
          "name": "ring_5_dim",
          "color": [
            0.3,
            0.45,
            1.0
          ],
          "intensity": 3.0,
          "range": 12.0
        },
        {
          "type": "point",
          "name": "ring_6_bright",
          "color": [
            1.0,
            0.85,
            0.65
          ],
          "intensity": 60.0,
          "range": 12.0
        },
        {
          "type": "point",
          "name": "ring_7_dim",
          "color": [
            0.3,
            0.45,
            1.0
          ],
          "intensity": 3.0,
          "range": 12.0
        },
        {
          "type": "point",
          "name": "ring_8_bright",
          "color": [
            1.0,
            0.85,
            0.65
          ],
          "intensity": 60.0,
          "range": 12.0
        },
        {
          "type": "point",
          "name": "ring_9_dim",
          "color": [
            0.3,
            0.45,
            1.0
          ],
          "intensity": 3.0,
          "range": 12.0
        },
        {
          "type": "point",
          "name": "ring_10_bright",
          "color": [
            1.0,
            0.85,
            0.65
          ],
          "intensity": 60.0,
          "range": 12.0
        },
        {
          "type": "point",
          "name": "ring_11_dim",
          "color": [
            0.3,
            0.45,
            1.0
          ],
          "intensity": 3.0,
          "range": 12.0
        },
        {
          "type": "point",
          "name": "ring_12_bright",
          "color": [
            1.0,
            0.85,
            0.65
          ],
          "intensity": 60.0,
          "range": 12.0
        },
        {
          "type": "point",
          "name": "ring_13_dim",
          "color": [
            0.3,
            0.45,
            1.0
          ],
          "intensity": 3.0,
          "range": 12.0
        },
        {
          "type": "point",
          "name": "ring_14_bright",
          "color": [
            1.0,
            0.85,
            0.65
          ],
          "intensity": 60.0,
          "range": 12.0
        },
        {
          "type": "point",
          "name": "ring_15_dim",
          "color": [
            0.3,
            0.45,
            1.0
          ],
          "intensity": 3.0,
          "range": 12.0
        },
        {
          "type": "point",
          "name": "ring_16_bright",
          "color": [
            1.0,
            0.85,
            0.65
          ],
          "intensity": 60.0,
          "range": 12.0
        },
        {
          "type": "point",
          "name": "ring_17_dim",
          "color": [
            0.3,
            0.45,
            1.0
          ],
          "intensity": 3.0,
          "range": 12.0
        },
        {
          "type": "point",
          "name": "ring_18_bright",
          "color": [
            1.0,
            0.85,
            0.65
          ],
          "intensity": 60.0,
          "range": 12.0
        },
        {
          "type": "point",
          "name": "ring_19_dim",
          "color": [
            0.3,
            0.45,
            1.0
          ],
          "intensity": 3.0,
          "range": 12.0
        },
        {
          "type": "point",
          "name": "ring_20_bright",
          "color": [
            1.0,
            0.85,
            0.65
          ],
          "intensity": 60.0,
          "range": 12.0
        },
        {
          "type": "point",
          "name": "ring_21_dim",
          "color": [
            0.3,
            0.45,
            1.0
          ],
          "intensity": 3.0,
          "range": 12.0
        },
        {
          "type": "point",
          "name": "ring_22_bright",
          "color": [
            1.0,
            0.85,
            0.65
          ],
          "intensity": 60.0,
          "range": 12.0
        },
        {
          "type": "point",
          "name": "ring_23_dim",
          "color": [
            0.3,
            0.45,
            1.0
          ],
          "intensity": 3.0,
          "range": 12.0
        },
        {
          "type": "point",
          "name": "ring_24_bright",
          "color": [
            1.0,
            0.85,
            0.65
          ],
          "intensity": 60.0,
          "range": 12.0
        },
        {
          "type": "point",
          "name": "ring_25_dim",
          "color": [
            0.3,
            0.45,
            1.0
          ],
          "intensity": 3.0,
          "range": 12.0
        },
        {
          "type": "point",
          "name": "ring_26_bright",
          "color": [
            1.0,
            0.85,
            0.65
          ],
          "intensity": 60.0,
          "range": 12.0
        },
        {
          "type": "point",
          "name": "ring_27_dim",
          "color": [
            0.3,
            0.45,
            1.0
          ],
          "intensity": 3.0,
          "range": 12.0
        },
        {
          "type": "point",
          "name": "ring_28_bright",
          "color": [
            1.0,
            0.85,
            0.65
          ],
          "intensity": 60.0,
          "range": 12.0
        },
        {
          "type": "point",
          "name": "ring_29_dim",
          "color": [
            0.3,
            0.45,
            1.0
          ],
          "intensity": 3.0,
          "range": 12.0
        },
        {
          "type": "point",
          "name": "ring_30_bright",
          "color": [
            1.0,
            0.85,
            0.65
          ],
          "intensity": 60.0,
          "range": 12.0
        },
        {
          "type": "point",
          "name": "ring_31_dim",
          "color": [
            0.3,
            0.45,
            1.0
          ],
          "intensity": 3.0,
          "range": 12.0
        },
        {
          "type": "point",
          "name": "ring_32_bright",
          "color": [
            1.0,
            0.85,
            0.65
          ],
          "intensity": 60.0,
          "range": 12.0
        },
        {
          "type": "point",
          "name": "ring_33_dim",
          "color": [
            0.3,
            0.45,
            1.0
          ],
          "intensity": 3.0,
          "range": 12.0
        },
        {
          "type": "point",
          "name": "ring_34_bright",
          "color": [
            1.0,
            0.85,
            0.65
          ],
          "intensity": 60.0,
          "range": 12.0
        },
        {
          "type": "point",
          "name": "ring_35_dim",
          "color": [
            0.3,
            0.45,
            1.0
          ],
          "intensity": 3.0,
          "range": 12.0
        },
        {
          "type": "point",
          "name": "ring_36_bright",
          "color": [
            1.0,
            0.85,
            0.65
          ],
          "intensity": 60.0,
          "range": 12.0
        },
        {
          "type": "point",
          "name": "ring_37_dim",
          "color": [
            0.3,
            0.45,
            1.0
          ],
          "intensity": 3.0,
          "range": 12.0
        },
        {
          "type": "point",
          "name": "ring_38_bright",
          "color": [
            1.0,
            0.85,
            0.65
          ],
          "intensity": 60.0,
          "range": 12.0
        },
        {
          "type": "point",
          "name": "ring_39_dim",
          "color": [
            0.3,
            0.45,
            1.0
          ],
          "intensity": 3.0,
          "range": 12.0
        }
      ]
    }
  },
  "scene": 0,
  "scenes": [
    {
      "name": "stress",
      "nodes": [
        0,
        1,
        2,
        3,
        4,
        5,
        6,
        7,
        8,
        9,
        10,
        11,
        12,
        13,
        14,
        15,
        16,
        17,
        18,
        19,
        20,
        21,
        22,
        23,
        24,
        25,
        26,
        27,
        28,
        29,
        30,
        31,
        32,
        33,
        34,
        35,
        36,
        37,
        38,
        39,
        40,
        41,
        42,
        43
      ]
    }
  ],
  "nodes": [
    {
      "name": "block_left",
      "mesh": 0,
      "translation": [
        -3.0,
        1.5,
        -1.0
      ],
      "scale": [
        1.0,
        3.0,
        1.0
      ]
    },
    {
      "name": "block_mid",
      "mesh": 0,
      "translation": [
        0.0,
        1.2,
        2.0
      ],
      "scale": [
        0.8,
        2.4,
        0.8
      ]
    },
    {
      "name": "block_right",
      "mesh": 0,
      "translation": [
        3.2,
        1.8,
        -3.5
      ],
      "scale": [
        1.2,
        3.6,
        1.2
      ]
    },
    {
      "name": "ground",
      "mesh": 1,
      "translation": [
        0.0,
        0.0,
        0.0
      ],
      "scale": [
        1.0,
        1.0,
        1.0
      ]
    },
    {
      "name": "ring_node_0",
      "translation": [
        5.0,
        2.0,
        0.0
      ],
      "extensions": {
        "KHR_lights_punctual": {
          "light": 0
        }
      }
    },
    {
      "name": "ring_node_1",
      "translation": [
        4.938441702975689,
        2.0,
        0.7821723252011543
      ],
      "extensions": {
        "KHR_lights_punctual": {
          "light": 1
        }
      }
    },
    {
      "name": "ring_node_2",
      "translation": [
        4.755282581475767,
        2.0,
        1.545084971874737
      ],
      "extensions": {
        "KHR_lights_punctual": {
          "light": 2
        }
      }
    },
    {
      "name": "ring_node_3",
      "translation": [
        4.455032620941839,
        2.0,
        2.2699524986977337
      ],
      "extensions": {
        "KHR_lights_punctual": {
          "light": 3
        }
      }
    },
    {
      "name": "ring_node_4",
      "translation": [
        4.045084971874737,
        2.0,
        2.938926261462366
      ],
      "extensions": {
        "KHR_lights_punctual": {
          "light": 4
        }
      }
    },
    {
      "name": "ring_node_5",
      "translation": [
        3.5355339059327378,
        2.0,
        3.5355339059327373
      ],
      "extensions": {
        "KHR_lights_punctual": {
          "light": 5
        }
      }
    },
    {
      "name": "ring_node_6",
      "translation": [
        2.938926261462366,
        2.0,
        4.045084971874737
      ],
      "extensions": {
        "KHR_lights_punctual": {
          "light": 6
        }
      }
    },
    {
      "name": "ring_node_7",
      "translation": [
        2.269952498697734,
        2.0,
        4.455032620941839
      ],
      "extensions": {
        "KHR_lights_punctual": {
          "light": 7
        }
      }
    },
    {
      "name": "ring_node_8",
      "translation": [
        1.5450849718747373,
        2.0,
        4.755282581475767
      ],
      "extensions": {
        "KHR_lights_punctual": {
          "light": 8
        }
      }
    },
    {
      "name": "ring_node_9",
      "translation": [
        0.7821723252011547,
        2.0,
        4.938441702975689
      ],
      "extensions": {
        "KHR_lights_punctual": {
          "light": 9
        }
      }
    },
    {
      "name": "ring_node_10",
      "translation": [
        3.061616997868383e-16,
        2.0,
        5.0
      ],
      "extensions": {
        "KHR_lights_punctual": {
          "light": 10
        }
      }
    },
    {
      "name": "ring_node_11",
      "translation": [
        -0.782172325201153,
        2.0,
        4.938441702975689
      ],
      "extensions": {
        "KHR_lights_punctual": {
          "light": 11
        }
      }
    },
    {
      "name": "ring_node_12",
      "translation": [
        -1.5450849718747368,
        2.0,
        4.755282581475768
      ],
      "extensions": {
        "KHR_lights_punctual": {
          "light": 12
        }
      }
    },
    {
      "name": "ring_node_13",
      "translation": [
        -2.2699524986977333,
        2.0,
        4.455032620941839
      ],
      "extensions": {
        "KHR_lights_punctual": {
          "light": 13
        }
      }
    },
    {
      "name": "ring_node_14",
      "translation": [
        -2.938926261462365,
        2.0,
        4.045084971874737
      ],
      "extensions": {
        "KHR_lights_punctual": {
          "light": 14
        }
      }
    },
    {
      "name": "ring_node_15",
      "translation": [
        -3.5355339059327373,
        2.0,
        3.5355339059327378
      ],
      "extensions": {
        "KHR_lights_punctual": {
          "light": 15
        }
      }
    },
    {
      "name": "ring_node_16",
      "translation": [
        -4.045084971874736,
        2.0,
        2.9389262614623664
      ],
      "extensions": {
        "KHR_lights_punctual": {
          "light": 16
        }
      }
    },
    {
      "name": "ring_node_17",
      "translation": [
        -4.455032620941839,
        2.0,
        2.269952498697734
      ],
      "extensions": {
        "KHR_lights_punctual": {
          "light": 17
        }
      }
    },
    {
      "name": "ring_node_18",
      "translation": [
        -4.755282581475767,
        2.0,
        1.5450849718747375
      ],
      "extensions": {
        "KHR_lights_punctual": {
          "light": 18
        }
      }
    },
    {
      "name": "ring_node_19",
      "translation": [
        -4.938441702975688,
        2.0,
        0.7821723252011549
      ],
      "extensions": {
        "KHR_lights_punctual": {
          "light": 19
        }
      }
    },
    {
      "name": "ring_node_20",
      "translation": [
        -5.0,
        2.0,
        6.123233995736766e-16
      ],
      "extensions": {
        "KHR_lights_punctual": {
          "light": 20
        }
      }
    },
    {
      "name": "ring_node_21",
      "translation": [
        -4.938441702975689,
        2.0,
        -0.7821723252011537
      ],
      "extensions": {
        "KHR_lights_punctual": {
          "light": 21
        }
      }
    },
    {
      "name": "ring_node_22",
      "translation": [
        -4.755282581475769,
        2.0,
        -1.5450849718747346
      ],
      "extensions": {
        "KHR_lights_punctual": {
          "light": 22
        }
      }
    },
    {
      "name": "ring_node_23",
      "translation": [
        -4.455032620941839,
        2.0,
        -2.2699524986977333
      ],
      "extensions": {
        "KHR_lights_punctual": {
          "light": 23
        }
      }
    },
    {
      "name": "ring_node_24",
      "translation": [
        -4.045084971874738,
        2.0,
        -2.938926261462365
      ],
      "extensions": {
        "KHR_lights_punctual": {
          "light": 24
        }
      }
    },
    {
      "name": "ring_node_25",
      "translation": [
        -3.5355339059327386,
        2.0,
        -3.5355339059327373
      ],
      "extensions": {
        "KHR_lights_punctual": {
          "light": 25
        }
      }
    },
    {
      "name": "ring_node_26",
      "translation": [
        -2.9389262614623664,
        2.0,
        -4.045084971874736
      ],
      "extensions": {
        "KHR_lights_punctual": {
          "light": 26
        }
      }
    },
    {
      "name": "ring_node_27",
      "translation": [
        -2.2699524986977346,
        2.0,
        -4.455032620941839
      ],
      "extensions": {
        "KHR_lights_punctual": {
          "light": 27
        }
      }
    },
    {
      "name": "ring_node_28",
      "translation": [
        -1.5450849718747377,
        2.0,
        -4.755282581475767
      ],
      "extensions": {
        "KHR_lights_punctual": {
          "light": 28
        }
      }
    },
    {
      "name": "ring_node_29",
      "translation": [
        -0.7821723252011552,
        2.0,
        -4.938441702975688
      ],
      "extensions": {
        "KHR_lights_punctual": {
          "light": 29
        }
      }
    },
    {
      "name": "ring_node_30",
      "translation": [
        -9.184850993605148e-16,
        2.0,
        -5.0
      ],
      "extensions": {
        "KHR_lights_punctual": {
          "light": 30
        }
      }
    },
    {
      "name": "ring_node_31",
      "translation": [
        0.7821723252011534,
        2.0,
        -4.938441702975689
      ],
      "extensions": {
        "KHR_lights_punctual": {
          "light": 31
        }
      }
    },
    {
      "name": "ring_node_32",
      "translation": [
        1.5450849718747361,
        2.0,
        -4.755282581475768
      ],
      "extensions": {
        "KHR_lights_punctual": {
          "light": 32
        }
      }
    },
    {
      "name": "ring_node_33",
      "translation": [
        2.2699524986977333,
        2.0,
        -4.45503262094184
      ],
      "extensions": {
        "KHR_lights_punctual": {
          "light": 33
        }
      }
    },
    {
      "name": "ring_node_34",
      "translation": [
        2.9389262614623646,
        2.0,
        -4.045084971874738
      ],
      "extensions": {
        "KHR_lights_punctual": {
          "light": 34
        }
      }
    },
    {
      "name": "ring_node_35",
      "translation": [
        3.535533905932737,
        2.0,
        -3.5355339059327386
      ],
      "extensions": {
        "KHR_lights_punctual": {
          "light": 35
        }
      }
    },
    {
      "name": "ring_node_36",
      "translation": [
        4.045084971874736,
        2.0,
        -2.938926261462367
      ],
      "extensions": {
        "KHR_lights_punctual": {
          "light": 36
        }
      }
    },
    {
      "name": "ring_node_37",
      "translation": [
        4.455032620941839,
        2.0,
        -2.2699524986977346
      ],
      "extensions": {
        "KHR_lights_punctual": {
          "light": 37
        }
      }
    },
    {
      "name": "ring_node_38",
      "translation": [
        4.755282581475767,
        2.0,
        -1.5450849718747381
      ],
      "extensions": {
        "KHR_lights_punctual": {
          "light": 38
        }
      }
    },
    {
      "name": "ring_node_39",
      "translation": [
        4.938441702975688,
        2.0,
        -0.7821723252011556
      ],
      "extensions": {
        "KHR_lights_punctual": {
          "light": 39
        }
      }
    }
  ],
  "meshes": [
    {
      "name": "block",
      "primitives": [
        {
          "attributes": {
            "POSITION": 0,
            "NORMAL": 1,
            "TANGENT": 2,
            "TEXCOORD_0": 3
          },
          "indices": 4,
          "material": 0
        }
      ]
    },
    {
      "name": "ground",
      "primitives": [
        {
          "attributes": {
            "POSITION": 5,
            "NORMAL": 6,
            "TANGENT": 7,
            "TEXCOORD_0": 8
          },
          "indices": 9,
          "material": 1
        }
      ]
    }
  ],
  "materials": [
    {
      "name": "block_white",
      "pbrMetallicRoughness": {
        "baseColorFactor": [
          0.85,
          0.85,
          0.85,
          1.0
        ],
        "roughnessFactor": 0.85,
        "metallicFactor": 0.0
      }
    },
    {
      "name": "ground_grey",
      "pbrMetallicRoughness": {
        "baseColorFactor": [
          0.5,
          0.5,
          0.52,
          1.0
        ],
        "roughnessFactor": 0.8,
        "metallicFactor": 0.0
      }
    }
  ],
  "accessors": [
    {
      "bufferView": 0,
      "componentType": 5126,
      "count": 24,
      "type": "VEC3",
      "min": [
        -0.5,
        -0.5,
        -0.5
      ],
      "max": [
        0.5,
        0.5,
        0.5
      ]
    },
    {
      "bufferView": 1,
      "componentType": 5126,
      "count": 24,
      "type": "VEC3"
    },
    {
      "bufferView": 2,
      "componentType": 5126,
      "count": 24,
      "type": "VEC4"
    },
    {
      "bufferView": 3,
      "componentType": 5126,
      "count": 24,
      "type": "VEC2"
    },
    {
      "bufferView": 4,
      "componentType": 5125,
      "count": 36,
      "type": "SCALAR"
    },
    {
      "bufferView": 5,
      "componentType": 5126,
      "count": 4,
      "type": "VEC3",
      "min": [
        -6.0,
        0.0,
        -11.0
      ],
      "max": [
        6.0,
        0.0,
        11.0
      ]
    },
    {
      "bufferView": 6,
      "componentType": 5126,
      "count": 4,
      "type": "VEC3"
    },
    {
      "bufferView": 7,
      "componentType": 5126,
      "count": 4,
      "type": "VEC4"
    },
    {
      "bufferView": 8,
      "componentType": 5126,
      "count": 4,
      "type": "VEC2"
    },
    {
      "bufferView": 9,
      "componentType": 5125,
      "count": 6,
      "type": "SCALAR"
    }
  ],
  "bufferViews": [
    {
      "buffer": 0,
      "byteOffset": 0,
      "byteLength": 288,
      "target": 34962
    },
    {
      "buffer": 0,
      "byteOffset": 288,
      "byteLength": 288,
      "target": 34962
    },
    {
      "buffer": 0,
      "byteOffset": 576,
      "byteLength": 384,
      "target": 34962
    },
    {
      "buffer": 0,
      "byteOffset": 960,
      "byteLength": 192,
      "target": 34962
    },
    {
      "buffer": 0,
      "byteOffset": 1152,
      "byteLength": 144,
      "target": 34963
    },
    {
      "buffer": 0,
      "byteOffset": 1296,
      "byteLength": 48,
      "target": 34962
    },
    {
      "buffer": 0,
      "byteOffset": 1344,
      "byteLength": 48,
      "target": 34962
    },
    {
      "buffer": 0,
      "byteOffset": 1392,
      "byteLength": 64,
      "target": 34962
    },
    {
      "buffer": 0,
      "byteOffset": 1456,
      "byteLength": 32,
      "target": 34962
    },
    {
      "buffer": 0,
      "byteOffset": 1488,
      "byteLength": 24,
      "target": 34963
    }
  ],
  "buffers": [
    {
      "byteLength": 1512,
      "uri": "data:application/octet-stream;base64,"
    }
  ]
}
